<svg xmlns="http://www.w3.org/2000/svg" viewBox="0 0 100 100" fill="currentColor">
  <!-- Left post -->
  <rect x="8" y="18" width="9" height="60" rx="4"/>
  <!-- Right post -->
  <rect x="83" y="18" width="9" height="60" rx="4"/>
  <!-- Post caps -->
  <circle cx="12.5" cy="13" r="7"/>
  <circle cx="87.5" cy="13" r="7"/>
  <!-- Centre ring -->
  <circle cx="50" cy="8" r="8"/>
  <circle cx="50" cy="8" r="4" fill="white"/>
  <!-- Top beam -->
  <rect x="10" y="22" width="80" height="7" rx="3.5"/>
  <!-- Upper warp threads -->
  <rect x="21" y="29" width="4" height="22" rx="2"/>
  <rect x="30" y="29" width="4" height="22" rx="2"/>
  <rect x="39" y="29" width="4" height="22" rx="2"/>
  <rect x="48" y="29" width="4" height="22" rx="2"/>
  <rect x="57" y="29" width="4" height="22" rx="2"/>
  <rect x="66" y="29" width="4" height="22" rx="2"/>
  <rect x="75" y="29" width="4" height="22" rx="2"/>
  <!-- Middle beam / beater -->
  <rect x="10" y="51" width="80" height="7" rx="3.5"/>
  <!-- Lower warp threads -->
  <rect x="21" y="58" width="4" height="14" rx="2"/>
  <rect x="30" y="58" width="4" height="14" rx="2"/>
  <rect x="39" y="58" width="4" height="14" rx="2"/>
  <rect x="48" y="58" width="4" height="14" rx="2"/>
  <rect x="57" y="58" width="4" height="14" rx="2"/>
  <rect x="66" y="58" width="4" height="14" rx="2"/>
  <rect x="75" y="58" width="4" height="14" rx="2"/>
  <!-- Bottom beam -->
  <rect x="10" y="72" width="80" height="7" rx="3.5"/>
  <!-- Woven section background -->
  <rect x="17" y="79" width="66" height="14" rx="3" opacity="0.15"/>
  <!-- Diamond pattern -->
  <path d="M30 86 L35 81 L40 86 L35 91 Z"/>
  <path d="M45 86 L50 81 L55 86 L50 91 Z"/>
  <path d="M60 86 L65 81 L70 86 L65 91 Z"/>
  <!-- Accent dots -->
  <circle cx="27" cy="86" r="1.5"/>
  <circle cx="42.5" cy="86" r="1.5"/>
  <circle cx="57.5" cy="86" r="1.5"/>
  <circle cx="73" cy="86" r="1.5"/>
  <!-- Feet -->
  <rect x="5" y="79" width="11" height="14" rx="4"/>
  <rect x="84" y="79" width="11" height="14" rx="4"/>
</svg>
